<mxfile host="65bd71144e">
    <diagram id="YTUYhWcBJtkQbph42lfV" name="login">
        <mxGraphModel dx="1254" dy="863" grid="1" gridSize="10" guides="1" tooltips="1" connect="1" arrows="1" fold="1" page="1" pageScale="1" pageWidth="1169" pageHeight="827" math="0" shadow="0">
            <root>
                <mxCell id="0"/>
                <mxCell id="1" parent="0"/>
                <mxCell id="2" value="" style="rounded=1;whiteSpace=wrap;html=1;imageWidth=24;" parent="1" vertex="1">
                    <mxGeometry x="460" y="340" width="250" height="30" as="geometry"/>
                </mxCell>
                <mxCell id="3" value="" style="rounded=1;whiteSpace=wrap;html=1;imageWidth=24;" parent="1" vertex="1">
                    <mxGeometry x="460" y="394" width="250" height="30" as="geometry"/>
                </mxCell>
                <mxCell id="4" value="账号" style="text;html=1;strokeColor=none;fillColor=none;align=center;verticalAlign=middle;whiteSpace=wrap;rounded=0;" parent="1" vertex="1">
                    <mxGeometry x="360" y="350" width="100" height="20" as="geometry"/>
                </mxCell>
                <mxCell id="5" value="密码" style="text;html=1;strokeColor=none;fillColor=none;align=center;verticalAlign=middle;whiteSpace=wrap;rounded=0;" parent="1" vertex="1">
                    <mxGeometry x="360" y="402" width="100" height="20" as="geometry"/>
                </mxCell>
                <UserObject label="" link="data:page/id,6zdwth1MCDCU54DRQet1" id="6">
                    <mxCell style="ellipse;whiteSpace=wrap;html=1;aspect=fixed;" parent="1" vertex="1">
                        <mxGeometry x="730" y="393.5" width="31" height="31" as="geometry"/>
                    </mxCell>
                </UserObject>
            </root>
        </mxGraphModel>
    </diagram>
    <diagram id="6zdwth1MCDCU54DRQet1" name="projects">
        <mxGraphModel dx="1254" dy="863" grid="1" gridSize="10" guides="1" tooltips="1" connect="1" arrows="1" fold="1" page="1" pageScale="1" pageWidth="1169" pageHeight="827" math="0" shadow="0">
            <root>
                <mxCell id="9ARHHFNPeTF1wXbL7fjG-0"/>
                <mxCell id="9ARHHFNPeTF1wXbL7fjG-1" parent="9ARHHFNPeTF1wXbL7fjG-0"/>
                <mxCell id="4XbCyd7gQ7cuH0UCO89K-0" value="" style="rounded=0;whiteSpace=wrap;html=1;" parent="9ARHHFNPeTF1wXbL7fjG-1" vertex="1">
                    <mxGeometry width="1150" height="30" as="geometry"/>
                </mxCell>
                <mxCell id="4XbCyd7gQ7cuH0UCO89K-1" value="" style="rounded=0;whiteSpace=wrap;html=1;" parent="9ARHHFNPeTF1wXbL7fjG-1" vertex="1">
                    <mxGeometry x="10" y="40" width="120" height="60" as="geometry"/>
                </mxCell>
                <mxCell id="4XbCyd7gQ7cuH0UCO89K-2" value="" style="rounded=0;whiteSpace=wrap;html=1;" parent="9ARHHFNPeTF1wXbL7fjG-1" vertex="1">
                    <mxGeometry x="140" y="40" width="120" height="60" as="geometry"/>
                </mxCell>
                <mxCell id="4XbCyd7gQ7cuH0UCO89K-3" value="" style="rounded=0;whiteSpace=wrap;html=1;" parent="9ARHHFNPeTF1wXbL7fjG-1" vertex="1">
                    <mxGeometry x="270" y="40" width="120" height="60" as="geometry"/>
                </mxCell>
                <mxCell id="qRdH0rDy7Zs5ooK24fi5-0" value="项目一览" style="text;html=1;strokeColor=none;fillColor=none;align=center;verticalAlign=middle;whiteSpace=wrap;rounded=0;" parent="9ARHHFNPeTF1wXbL7fjG-1" vertex="1">
                    <mxGeometry x="530" y="5" width="150" height="20" as="geometry"/>
                </mxCell>
                <mxCell id="4XbCyd7gQ7cuH0UCO89K-4" value="用户名" style="text;html=1;strokeColor=none;fillColor=none;align=center;verticalAlign=middle;whiteSpace=wrap;rounded=0;" parent="9ARHHFNPeTF1wXbL7fjG-1" vertex="1">
                    <mxGeometry x="1090" y="5" width="40" height="20" as="geometry"/>
                </mxCell>
                <mxCell id="qRdH0rDy7Zs5ooK24fi5-1" value="项目名称" style="text;html=1;strokeColor=none;fillColor=none;align=left;verticalAlign=middle;whiteSpace=wrap;rounded=0;" parent="9ARHHFNPeTF1wXbL7fjG-1" vertex="1">
                    <mxGeometry x="10" y="40" width="120" height="20" as="geometry"/>
                </mxCell>
                <mxCell id="qRdH0rDy7Zs5ooK24fi5-2" value="客户名称" style="text;html=1;strokeColor=none;fillColor=none;align=left;verticalAlign=middle;whiteSpace=wrap;rounded=0;" parent="9ARHHFNPeTF1wXbL7fjG-1" vertex="1">
                    <mxGeometry x="10" y="58" width="60" height="20" as="geometry"/>
                </mxCell>
                <mxCell id="qRdH0rDy7Zs5ooK24fi5-3" value="客户负责人" style="text;html=1;strokeColor=none;fillColor=none;align=left;verticalAlign=middle;whiteSpace=wrap;rounded=0;" parent="9ARHHFNPeTF1wXbL7fjG-1" vertex="1">
                    <mxGeometry x="70" y="58" width="70" height="20" as="geometry"/>
                </mxCell>
                <mxCell id="qRdH0rDy7Zs5ooK24fi5-4" value="纳期" style="text;html=1;strokeColor=none;fillColor=none;align=left;verticalAlign=middle;whiteSpace=wrap;rounded=0;" parent="9ARHHFNPeTF1wXbL7fjG-1" vertex="1">
                    <mxGeometry x="10" y="78" width="50" height="22" as="geometry"/>
                </mxCell>
                <mxCell id="XdtvtYcqrtHlx06PYxCI-0" value="" style="edgeStyle=none;html=1;" parent="9ARHHFNPeTF1wXbL7fjG-1" source="qRdH0rDy7Zs5ooK24fi5-5" target="4XbCyd7gQ7cuH0UCO89K-2" edge="1">
                    <mxGeometry relative="1" as="geometry"/>
                </mxCell>
                <mxCell id="qRdH0rDy7Zs5ooK24fi5-5" value="状态" style="text;html=1;strokeColor=none;fillColor=none;align=left;verticalAlign=middle;whiteSpace=wrap;rounded=0;" parent="9ARHHFNPeTF1wXbL7fjG-1" vertex="1">
                    <mxGeometry x="70" y="78" width="50" height="22" as="geometry"/>
                </mxCell>
            </root>
        </mxGraphModel>
    </diagram>
    <diagram id="hIt5eR0NHSgrEP4bjatY" name="project-detail">
        <mxGraphModel dx="1254" dy="863" grid="1" gridSize="10" guides="1" tooltips="1" connect="1" arrows="1" fold="1" page="1" pageScale="1" pageWidth="1169" pageHeight="827" math="0" shadow="0">
            <root>
                <mxCell id="lEOkNR6rFQoBbIpDs8Dj-0"/>
                <mxCell id="lEOkNR6rFQoBbIpDs8Dj-1" parent="lEOkNR6rFQoBbIpDs8Dj-0"/>
                <mxCell id="lEOkNR6rFQoBbIpDs8Dj-3" value="" style="whiteSpace=wrap;html=1;" parent="lEOkNR6rFQoBbIpDs8Dj-1" vertex="1">
                    <mxGeometry width="1160" height="30" as="geometry"/>
                </mxCell>
                <mxCell id="lEOkNR6rFQoBbIpDs8Dj-5" value="" style="rounded=1;whiteSpace=wrap;html=1;" parent="lEOkNR6rFQoBbIpDs8Dj-1" vertex="1">
                    <mxGeometry x="5" y="5" width="30" height="20" as="geometry"/>
                </mxCell>
                <mxCell id="lEOkNR6rFQoBbIpDs8Dj-6" value="" style="rounded=0;whiteSpace=wrap;html=1;" parent="lEOkNR6rFQoBbIpDs8Dj-1" vertex="1">
                    <mxGeometry y="30" width="110" height="540" as="geometry"/>
                </mxCell>
                <mxCell id="lEOkNR6rFQoBbIpDs8Dj-7" value="信息一览" style="rounded=1;whiteSpace=wrap;html=1;" parent="lEOkNR6rFQoBbIpDs8Dj-1" vertex="1">
                    <mxGeometry y="30" width="110" height="30" as="geometry"/>
                </mxCell>
                <mxCell id="lEOkNR6rFQoBbIpDs8Dj-8" value="计划任务" style="rounded=1;whiteSpace=wrap;html=1;" parent="lEOkNR6rFQoBbIpDs8Dj-1" vertex="1">
                    <mxGeometry y="309" width="110" height="30" as="geometry"/>
                </mxCell>
                <mxCell id="ZVh_KMmbEQ2IV04V2A9B-0" value="进度" style="rounded=1;whiteSpace=wrap;html=1;" vertex="1" parent="lEOkNR6rFQoBbIpDs8Dj-1">
                    <mxGeometry y="60" width="110" height="30" as="geometry"/>
                </mxCell>
                <mxCell id="ZVh_KMmbEQ2IV04V2A9B-1" value="品质" style="rounded=1;whiteSpace=wrap;html=1;" vertex="1" parent="lEOkNR6rFQoBbIpDs8Dj-1">
                    <mxGeometry y="90" width="110" height="30" as="geometry"/>
                </mxCell>
                <mxCell id="ZVh_KMmbEQ2IV04V2A9B-2" value="风险" style="rounded=1;whiteSpace=wrap;html=1;" vertex="1" parent="lEOkNR6rFQoBbIpDs8Dj-1">
                    <mxGeometry y="120" width="110" height="30" as="geometry"/>
                </mxCell>
                <mxCell id="ZVh_KMmbEQ2IV04V2A9B-3" value="成本" style="rounded=1;whiteSpace=wrap;html=1;" vertex="1" parent="lEOkNR6rFQoBbIpDs8Dj-1">
                    <mxGeometry y="150" width="110" height="30" as="geometry"/>
                </mxCell>
                <mxCell id="ZVh_KMmbEQ2IV04V2A9B-4" value="开发流程" style="rounded=1;whiteSpace=wrap;html=1;" vertex="1" parent="lEOkNR6rFQoBbIpDs8Dj-1">
                    <mxGeometry y="339" width="110" height="30" as="geometry"/>
                </mxCell>
                <mxCell id="ZVh_KMmbEQ2IV04V2A9B-5" value="人员体制" style="rounded=1;whiteSpace=wrap;html=1;" vertex="1" parent="lEOkNR6rFQoBbIpDs8Dj-1">
                    <mxGeometry y="369" width="110" height="30" as="geometry"/>
                </mxCell>
                <mxCell id="ZVh_KMmbEQ2IV04V2A9B-6" value="品质指标" style="rounded=1;whiteSpace=wrap;html=1;" vertex="1" parent="lEOkNR6rFQoBbIpDs8Dj-1">
                    <mxGeometry y="399" width="110" height="30" as="geometry"/>
                </mxCell>
                <mxCell id="ZVh_KMmbEQ2IV04V2A9B-7" value="风险管理" style="rounded=1;whiteSpace=wrap;html=1;" vertex="1" parent="lEOkNR6rFQoBbIpDs8Dj-1">
                    <mxGeometry y="429" width="110" height="30" as="geometry"/>
                </mxCell>
                <mxCell id="ZVh_KMmbEQ2IV04V2A9B-8" value="成本管理" style="rounded=1;whiteSpace=wrap;html=1;" vertex="1" parent="lEOkNR6rFQoBbIpDs8Dj-1">
                    <mxGeometry y="459" width="110" height="30" as="geometry"/>
                </mxCell>
                <mxCell id="ZVh_KMmbEQ2IV04V2A9B-9" value="成本管理" style="rounded=1;whiteSpace=wrap;html=1;" vertex="1" parent="lEOkNR6rFQoBbIpDs8Dj-1">
                    <mxGeometry y="489" width="110" height="30" as="geometry"/>
                </mxCell>
                <mxCell id="ZVh_KMmbEQ2IV04V2A9B-10" value="任务下发" style="rounded=1;whiteSpace=wrap;html=1;" vertex="1" parent="lEOkNR6rFQoBbIpDs8Dj-1">
                    <mxGeometry y="210" width="110" height="30" as="geometry"/>
                </mxCell>
            </root>
        </mxGraphModel>
    </diagram>
</mxfile>